<svg xmlns="http://www.w3.org/2000/svg" width="1100" height="390" viewBox="0 0 1100 390" role="img" aria-labelledby="title desc">
  <title id="title">NhapMonAI ALPR portfolio review card</title>
  <desc id="desc">ASCII safe SVG card for reviewer-ready NhapMonAI YOLO OCR evidence.</desc>
  <defs>
    <linearGradient id="bg" x1="0" y1="0" x2="1" y2="1">
      <stop offset="0" stop-color="#0f172a"/>
      <stop offset="0.52" stop-color="#133b63"/>
      <stop offset="1" stop-color="#0f766e"/>
    </linearGradient>
    <linearGradient id="accent" x1="0" y1="0" x2="1" y2="0">
      <stop offset="0" stop-color="#38bdf8"/>
      <stop offset="1" stop-color="#f59e0b"/>
    </linearGradient>
    <filter id="softShadow" x="-20%" y="-20%" width="140%" height="140%">
      <feDropShadow dx="0" dy="10" stdDeviation="12" flood-color="#020617" flood-opacity="0.35"/>
    </filter>
  </defs>
  <rect width="1100" height="390" rx="28" fill="url(#bg)"/>
  <rect x="32" y="32" width="1036" height="326" rx="22" fill="#ffffff" opacity="0.08"/>
  <rect x="60" y="64" width="420" height="262" rx="20" fill="#020617" opacity="0.42" filter="url(#softShadow)"/>
  <text x="84" y="112" fill="#e0f2fe" font-family="Segoe UI, Arial, sans-serif" font-size="34" font-weight="800">NhapMonAI</text>
  <text x="84" y="150" fill="#f8fafc" font-family="Segoe UI, Arial, sans-serif" font-size="21" font-weight="600">Vietnamese ALPR Evidence</text>
  <text x="84" y="190" fill="#cbd5e1" font-family="Segoe UI, Arial, sans-serif" font-size="17">YOLO detector + OCR normalization</text>
  <text x="84" y="220" fill="#cbd5e1" font-family="Segoe UI, Arial, sans-serif" font-size="17">Kaggle notebook + FastALPR reference</text>
  <text x="84" y="250" fill="#cbd5e1" font-family="Segoe UI, Arial, sans-serif" font-size="17">Python desktop app + PC gate demo</text>
  <text x="84" y="280" fill="#cbd5e1" font-family="Segoe UI, Arial, sans-serif" font-size="17">Report, release assets, Git LFS</text>
  <rect x="84" y="300" width="256" height="10" rx="5" fill="url(#accent)"/>
  <g font-family="Segoe UI, Arial, sans-serif" font-size="17" font-weight="700">
    <rect x="532" y="70" width="214" height="72" rx="18" fill="#e0f2fe"/>
    <text x="560" y="114" fill="#0f172a">YOLO mAP50 0.99450</text>
    <rect x="784" y="70" width="222" height="72" rx="18" fill="#fef3c7"/>
    <text x="812" y="114" fill="#0f172a">Precision 0.99448</text>
    <rect x="532" y="176" width="214" height="72" rx="18" fill="#dcfce7"/>
    <text x="560" y="220" fill="#0f172a">Recall 0.99373</text>
    <rect x="784" y="176" width="222" height="72" rx="18" fill="#fee2e2"/>
    <text x="812" y="220" fill="#0f172a">Release + Git LFS</text>
  </g>
  <rect x="532" y="286" width="502" height="72" rx="18" fill="#020617" opacity="0.22"/>
  <text x="532" y="316" fill="#e2e8f0" font-family="Segoe UI, Arial, sans-serif" font-size="18" font-weight="600">Input -> Crop -> OCR -> Annotated output -> Gate review</text>
  <text x="532" y="346" fill="#bae6fd" font-family="Segoe UI, Arial, sans-serif" font-size="15" font-weight="600">Course prototype: academic validation, not production traffic enforcement.</text>
</svg>
